# xmcd
#
# Track frame offsets:
#	150
#	12462
#	29132
#	50057
#	65639
#	78150
#	94146
#	102641
#	119216
#	130625
#	149069
#	159648
#	174875
#	190144
#	202084
#	213947
#	224517
#
# Disc length: 3228 seconds
#
# Revision: 0
# Processed by: cddbd v1.4PL0 Copyright (c) Steve Scherf et al.
# Submitted via: MusicWizard 6.0.0
#
DISCID=0f0c9a11
DTITLE=Various Artist - Twisted Willie (Reissue)
DYEAR=1996
DGENRE=Country
TTITLE0=W.Jennings, J.Cash, K.Kristofferson - Intro (Invisible Part)
TTITLE1=Johnny Cash - Time Of The Preacher
TTITLE2=L7 - Three Days
TTITLE3=Tenderloin - Shotgun Willie
TTITLE4=Supersuckers - Bloody Mary Morning
TTITLE5=Mark Lanegan - She's Not For You
TTITLE6=Presidents Of The United States Of America - Devil In A Sleepin' Bag
TTITLE7=Jerry Cantrell - I've Seen All This World I Care To See
TTITLE8=Best Kissers In The World - Pick Up The Tempo
TTITLE9=Joe Biafra With Life After Life - Still Is Still Moving To Me
TTITLE10=Waylon Jennings - I Never Cared For You
TTITLE11=Reverend Horton Heat - Hello Walls
TTITLE12=Gas Huffer - I Gotta Get Drunk
TTITLE13=Steel Pole Bath Tub - The Ghost
TTITLE14=Jesse Dayton - Sad Songs And Waltzes
TTITLE15=X - Home Motel
TTITLE16=Kelley Deal With Kris Kristofferson - Angel Flying Too Close To The Ground
EXTD=(c)1996  Justice Records, Houston TX,  JR 0009-2\nUPC =71948-80009-20\nProduced by Randall J
EXTD=amail and The Bands\nInvisible Narrative before first track made visible\n
EXTT0=Johnny Cash
EXTT1=L7
EXTT2=Tenderloin
EXTT3=Supersuckers
EXTT4=Mark Lanegan
EXTT5=The Presidentes Of The U.S.A.
EXTT6=Jerry Cantrell
EXTT7=Best Kissers In The World
EXTT8=Jello Biafra w/ Life After Life
EXTT9=Waylon Jennings
EXTT10=The REverend Horton Heat
EXTT11=Gas Huffer
EXTT12=Steel Pole Bath Tub
EXTT13=Jesse Dayton
EXTT14=X
EXTT15=Kelley Deal w/ Kris Kristofferson
EXTT16=
PLAYORDER=
